<svg width="640" height="128" viewBox="0 0 640 128" xmlns="http://www.w3.org/2000/svg">
  <!-- Aayu Full Logo — Light Background Version -->
  <!-- Mandala mark -->
  <g transform="translate(64,64)">
    <circle cx="0" cy="0" r="56" fill="none" stroke="#a06820" stroke-width="1.4" stroke-opacity="0.15"/>
    <!-- Outer petals -->
    <g>
      <path d="M0,-44 C-12,-30 -12,-16 0,-14 C12,-16 12,-30 0,-44Z" fill="#a06820" fill-opacity="0.08" stroke="#a06820" stroke-width="1.8" stroke-opacity="0.45" stroke-linejoin="round"/>
      <path d="M0,-44 C-12,-30 -12,-16 0,-14 C12,-16 12,-30 0,-44Z" fill="#a06820" fill-opacity="0.08" stroke="#a06820" stroke-width="1.8" stroke-opacity="0.45" stroke-linejoin="round" transform="rotate(45)"/>
      <path d="M0,-44 C-12,-30 -12,-16 0,-14 C12,-16 12,-30 0,-44Z" fill="#a06820" fill-opacity="0.08" stroke="#a06820" stroke-width="1.8" stroke-opacity="0.45" stroke-linejoin="round" transform="rotate(90)"/>
      <path d="M0,-44 C-12,-30 -12,-16 0,-14 C12,-16 12,-30 0,-44Z" fill="#a06820" fill-opacity="0.08" stroke="#a06820" stroke-width="1.8" stroke-opacity="0.45" stroke-linejoin="round" transform="rotate(135)"/>
      <path d="M0,-44 C-12,-30 -12,-16 0,-14 C12,-16 12,-30 0,-44Z" fill="#a06820" fill-opacity="0.08" stroke="#a06820" stroke-width="1.8" stroke-opacity="0.45" stroke-linejoin="round" transform="rotate(180)"/>
      <path d="M0,-44 C-12,-30 -12,-16 0,-14 C12,-16 12,-30 0,-44Z" fill="#a06820" fill-opacity="0.08" stroke="#a06820" stroke-width="1.8" stroke-opacity="0.45" stroke-linejoin="round" transform="rotate(225)"/>
      <path d="M0,-44 C-12,-30 -12,-16 0,-14 C12,-16 12,-30 0,-44Z" fill="#a06820" fill-opacity="0.08" stroke="#a06820" stroke-width="1.8" stroke-opacity="0.45" stroke-linejoin="round" transform="rotate(270)"/>
      <path d="M0,-44 C-12,-30 -12,-16 0,-14 C12,-16 12,-30 0,-44Z" fill="#a06820" fill-opacity="0.08" stroke="#a06820" stroke-width="1.8" stroke-opacity="0.45" stroke-linejoin="round" transform="rotate(315)"/>
    </g>
    <!-- Inner petals -->
    <g>
      <path d="M0,-28 C-8,-20 -8,-10 0,-8 C8,-10 8,-20 0,-28Z" fill="#a06820" fill-opacity="0.1" stroke="#a06820" stroke-width="1.4" stroke-opacity="0.35" stroke-linejoin="round"/>
      <path d="M0,-28 C-8,-20 -8,-10 0,-8 C8,-10 8,-20 0,-28Z" fill="#a06820" fill-opacity="0.1" stroke="#a06820" stroke-width="1.4" stroke-opacity="0.35" stroke-linejoin="round" transform="rotate(45)"/>
      <path d="M0,-28 C-8,-20 -8,-10 0,-8 C8,-10 8,-20 0,-28Z" fill="#a06820" fill-opacity="0.1" stroke="#a06820" stroke-width="1.4" stroke-opacity="0.35" stroke-linejoin="round" transform="rotate(90)"/>
      <path d="M0,-28 C-8,-20 -8,-10 0,-8 C8,-10 8,-20 0,-28Z" fill="#a06820" fill-opacity="0.1" stroke="#a06820" stroke-width="1.4" stroke-opacity="0.35" stroke-linejoin="round" transform="rotate(135)"/>
      <path d="M0,-28 C-8,-20 -8,-10 0,-8 C8,-10 8,-20 0,-28Z" fill="#a06820" fill-opacity="0.1" stroke="#a06820" stroke-width="1.4" stroke-opacity="0.35" stroke-linejoin="round" transform="rotate(180)"/>
      <path d="M0,-28 C-8,-20 -8,-10 0,-8 C8,-10 8,-20 0,-28Z" fill="#a06820" fill-opacity="0.1" stroke="#a06820" stroke-width="1.4" stroke-opacity="0.35" stroke-linejoin="round" transform="rotate(225)"/>
      <path d="M0,-28 C-8,-20 -8,-10 0,-8 C8,-10 8,-20 0,-28Z" fill="#a06820" fill-opacity="0.1" stroke="#a06820" stroke-width="1.4" stroke-opacity="0.35" stroke-linejoin="round" transform="rotate(270)"/>
      <path d="M0,-28 C-8,-20 -8,-10 0,-8 C8,-10 8,-20 0,-28Z" fill="#a06820" fill-opacity="0.1" stroke="#a06820" stroke-width="1.4" stroke-opacity="0.35" stroke-linejoin="round" transform="rotate(315)"/>
    </g>
    <!-- Centre -->
    <circle cx="0" cy="0" r="12" fill="none" stroke="#a06820" stroke-width="2" stroke-opacity="0.45"/>
    <polygon points="0,-7 5,0 0,7 -5,0" fill="#a06820" fill-opacity="0.85"/>
  </g>
  <!-- Wordmark -->
  <text x="148" y="58" fill="#1e1004" font-family="-apple-system,BlinkMacSystemFont,'Segoe UI',sans-serif" font-size="52" font-weight="300" letter-spacing="10">Aayu</text>
  <text x="148" y="92" fill="#a06820" font-family="-apple-system,BlinkMacSystemFont,'Segoe UI',sans-serif" font-size="16" font-weight="400" letter-spacing="5" opacity="0.5">INTERMITTENT FASTING</text>
</svg>
