<svg width="512" height="512" viewBox="0 0 512 512" xmlns="http://www.w3.org/2000/svg">
  <defs>
    <clipPath id="icon-clip"><rect width="512" height="512" rx="112"/></clipPath>
  </defs>
  <g clip-path="url(#icon-clip)">
    <rect width="512" height="512" fill="#0e0703"/>
    <circle cx="256" cy="256" r="222" fill="none" stroke="#c8872a" stroke-width="4" stroke-opacity="0.2"/>
    <circle cx="256" cy="256" r="196" fill="none" stroke="#c8872a" stroke-width="3" stroke-opacity="0.12"/>
    <g transform="translate(256,256)">
      <!-- Outer petals (8) -->
      <g>
        <path d="M0,-162 C-42,-110 -42,-60 0,-51 C42,-60 42,-110 0,-162Z" fill="#c8872a" fill-opacity="0.15" stroke="#c8872a" stroke-width="5" stroke-opacity="0.8" stroke-linejoin="round"/>
        <path d="M0,-162 C-42,-110 -42,-60 0,-51 C42,-60 42,-110 0,-162Z" fill="#c8872a" fill-opacity="0.15" stroke="#c8872a" stroke-width="5" stroke-opacity="0.8" stroke-linejoin="round" transform="rotate(45)"/>
        <path d="M0,-162 C-42,-110 -42,-60 0,-51 C42,-60 42,-110 0,-162Z" fill="#c8872a" fill-opacity="0.15" stroke="#c8872a" stroke-width="5" stroke-opacity="0.8" stroke-linejoin="round" transform="rotate(90)"/>
        <path d="M0,-162 C-42,-110 -42,-60 0,-51 C42,-60 42,-110 0,-162Z" fill="#c8872a" fill-opacity="0.15" stroke="#c8872a" stroke-width="5" stroke-opacity="0.8" stroke-linejoin="round" transform="rotate(135)"/>
        <path d="M0,-162 C-42,-110 -42,-60 0,-51 C42,-60 42,-110 0,-162Z" fill="#c8872a" fill-opacity="0.15" stroke="#c8872a" stroke-width="5" stroke-opacity="0.8" stroke-linejoin="round" transform="rotate(180)"/>
        <path d="M0,-162 C-42,-110 -42,-60 0,-51 C42,-60 42,-110 0,-162Z" fill="#c8872a" fill-opacity="0.15" stroke="#c8872a" stroke-width="5" stroke-opacity="0.8" stroke-linejoin="round" transform="rotate(225)"/>
        <path d="M0,-162 C-42,-110 -42,-60 0,-51 C42,-60 42,-110 0,-162Z" fill="#c8872a" fill-opacity="0.15" stroke="#c8872a" stroke-width="5" stroke-opacity="0.8" stroke-linejoin="round" transform="rotate(270)"/>
        <path d="M0,-162 C-42,-110 -42,-60 0,-51 C42,-60 42,-110 0,-162Z" fill="#c8872a" fill-opacity="0.15" stroke="#c8872a" stroke-width="5" stroke-opacity="0.8" stroke-linejoin="round" transform="rotate(315)"/>
      </g>
      <!-- Inner petals (8) -->
      <g>
        <path d="M0,-107 C-30,-72 -30,-38 0,-30 C30,-38 30,-72 0,-107Z" fill="#c8872a" fill-opacity="0.22" stroke="#c8872a" stroke-width="3.5" stroke-opacity="0.6" stroke-linejoin="round"/>
        <path d="M0,-107 C-30,-72 -30,-38 0,-30 C30,-38 30,-72 0,-107Z" fill="#c8872a" fill-opacity="0.22" stroke="#c8872a" stroke-width="3.5" stroke-opacity="0.6" stroke-linejoin="round" transform="rotate(45)"/>
        <path d="M0,-107 C-30,-72 -30,-38 0,-30 C30,-38 30,-72 0,-107Z" fill="#c8872a" fill-opacity="0.22" stroke="#c8872a" stroke-width="3.5" stroke-opacity="0.6" stroke-linejoin="round" transform="rotate(90)"/>
        <path d="M0,-107 C-30,-72 -30,-38 0,-30 C30,-38 30,-72 0,-107Z" fill="#c8872a" fill-opacity="0.22" stroke="#c8872a" stroke-width="3.5" stroke-opacity="0.6" stroke-linejoin="round" transform="rotate(135)"/>
        <path d="M0,-107 C-30,-72 -30,-38 0,-30 C30,-38 30,-72 0,-107Z" fill="#c8872a" fill-opacity="0.22" stroke="#c8872a" stroke-width="3.5" stroke-opacity="0.6" stroke-linejoin="round" transform="rotate(180)"/>
        <path d="M0,-107 C-30,-72 -30,-38 0,-30 C30,-38 30,-72 0,-107Z" fill="#c8872a" fill-opacity="0.22" stroke="#c8872a" stroke-width="3.5" stroke-opacity="0.6" stroke-linejoin="round" transform="rotate(225)"/>
        <path d="M0,-107 C-30,-72 -30,-38 0,-30 C30,-38 30,-72 0,-107Z" fill="#c8872a" fill-opacity="0.22" stroke="#c8872a" stroke-width="3.5" stroke-opacity="0.6" stroke-linejoin="round" transform="rotate(270)"/>
        <path d="M0,-107 C-30,-72 -30,-38 0,-30 C30,-38 30,-72 0,-107Z" fill="#c8872a" fill-opacity="0.22" stroke="#c8872a" stroke-width="3.5" stroke-opacity="0.6" stroke-linejoin="round" transform="rotate(315)"/>
      </g>
      <!-- Centre rings -->
      <circle cx="0" cy="0" r="43" fill="none" stroke="#c8872a" stroke-width="6" stroke-opacity="0.7"/>
      <circle cx="0" cy="0" r="32" fill="#c8872a" fill-opacity="0.1" stroke="#c8872a" stroke-width="4" stroke-opacity="0.4"/>
      <!-- Centre diamond -->
      <polygon points="0,-20 14.4,0 0,20 -14.4,0" fill="#c8872a" fill-opacity="0.9" stroke="#c8872a" stroke-width="2" stroke-opacity="1"/>
    </g>
  </g>
</svg>
