<svg width="512" height="512" viewBox="0 0 512 512" xmlns="http://www.w3.org/2000/svg">
  <!-- Aayu App Icon — Light Background (512x512) -->
  <defs>
    <clipPath id="icon-clip"><rect width="512" height="512" rx="112"/></clipPath>
  </defs>
  <g clip-path="url(#icon-clip)">
    <rect width="512" height="512" fill="#fdf8f0"/>
    <circle cx="256" cy="256" r="222" fill="none" stroke="#a06820" stroke-width="4" stroke-opacity="0.12"/>
    <circle cx="256" cy="256" r="196" fill="none" stroke="#a06820" stroke-width="3" stroke-opacity="0.08"/>
    <g transform="translate(256,256)">
      <g>
        <path d="M0,-162 C-42,-110 -42,-60 0,-51 C42,-60 42,-110 0,-162Z" fill="#a06820" fill-opacity="0.08" stroke="#a06820" stroke-width="5" stroke-opacity="0.5" stroke-linejoin="round"/>
        <path d="M0,-162 C-42,-110 -42,-60 0,-51 C42,-60 42,-110 0,-162Z" fill="#a06820" fill-opacity="0.08" stroke="#a06820" stroke-width="5" stroke-opacity="0.5" stroke-linejoin="round" transform="rotate(45)"/>
        <path d="M0,-162 C-42,-110 -42,-60 0,-51 C42,-60 42,-110 0,-162Z" fill="#a06820" fill-opacity="0.08" stroke="#a06820" stroke-width="5" stroke-opacity="0.5" stroke-linejoin="round" transform="rotate(90)"/>
        <path d="M0,-162 C-42,-110 -42,-60 0,-51 C42,-60 42,-110 0,-162Z" fill="#a06820" fill-opacity="0.08" stroke="#a06820" stroke-width="5" stroke-opacity="0.5" stroke-linejoin="round" transform="rotate(135)"/>
        <path d="M0,-162 C-42,-110 -42,-60 0,-51 C42,-60 42,-110 0,-162Z" fill="#a06820" fill-opacity="0.08" stroke="#a06820" stroke-width="5" stroke-opacity="0.5" stroke-linejoin="round" transform="rotate(180)"/>
        <path d="M0,-162 C-42,-110 -42,-60 0,-51 C42,-60 42,-110 0,-162Z" fill="#a06820" fill-opacity="0.08" stroke="#a06820" stroke-width="5" stroke-opacity="0.5" stroke-linejoin="round" transform="rotate(225)"/>
        <path d="M0,-162 C-42,-110 -42,-60 0,-51 C42,-60 42,-110 0,-162Z" fill="#a06820" fill-opacity="0.08" stroke="#a06820" stroke-width="5" stroke-opacity="0.5" stroke-linejoin="round" transform="rotate(270)"/>
        <path d="M0,-162 C-42,-110 -42,-60 0,-51 C42,-60 42,-110 0,-162Z" fill="#a06820" fill-opacity="0.08" stroke="#a06820" stroke-width="5" stroke-opacity="0.5" stroke-linejoin="round" transform="rotate(315)"/>
      </g>
      <g>
        <path d="M0,-107 C-30,-72 -30,-38 0,-30 C30,-38 30,-72 0,-107Z" fill="#a06820" fill-opacity="0.1" stroke="#a06820" stroke-width="3.5" stroke-opacity="0.4" stroke-linejoin="round"/>
        <path d="M0,-107 C-30,-72 -30,-38 0,-30 C30,-38 30,-72 0,-107Z" fill="#a06820" fill-opacity="0.1" stroke="#a06820" stroke-width="3.5" stroke-opacity="0.4" stroke-linejoin="round" transform="rotate(45)"/>
        <path d="M0,-107 C-30,-72 -30,-38 0,-30 C30,-38 30,-72 0,-107Z" fill="#a06820" fill-opacity="0.1" stroke="#a06820" stroke-width="3.5" stroke-opacity="0.4" stroke-linejoin="round" transform="rotate(90)"/>
        <path d="M0,-107 C-30,-72 -30,-38 0,-30 C30,-38 30,-72 0,-107Z" fill="#a06820" fill-opacity="0.1" stroke="#a06820" stroke-width="3.5" stroke-opacity="0.4" stroke-linejoin="round" transform="rotate(135)"/>
        <path d="M0,-107 C-30,-72 -30,-38 0,-30 C30,-38 30,-72 0,-107Z" fill="#a06820" fill-opacity="0.1" stroke="#a06820" stroke-width="3.5" stroke-opacity="0.4" stroke-linejoin="round" transform="rotate(180)"/>
        <path d="M0,-107 C-30,-72 -30,-38 0,-30 C30,-38 30,-72 0,-107Z" fill="#a06820" fill-opacity="0.1" stroke="#a06820" stroke-width="3.5" stroke-opacity="0.4" stroke-linejoin="round" transform="rotate(225)"/>
        <path d="M0,-107 C-30,-72 -30,-38 0,-30 C30,-38 30,-72 0,-107Z" fill="#a06820" fill-opacity="0.1" stroke="#a06820" stroke-width="3.5" stroke-opacity="0.4" stroke-linejoin="round" transform="rotate(270)"/>
        <path d="M0,-107 C-30,-72 -30,-38 0,-30 C30,-38 30,-72 0,-107Z" fill="#a06820" fill-opacity="0.1" stroke="#a06820" stroke-width="3.5" stroke-opacity="0.4" stroke-linejoin="round" transform="rotate(315)"/>
      </g>
      <circle cx="0" cy="0" r="43" fill="none" stroke="#a06820" stroke-width="6" stroke-opacity="0.5"/>
      <circle cx="0" cy="0" r="32" fill="#a06820" fill-opacity="0.06" stroke="#a06820" stroke-width="4" stroke-opacity="0.3"/>
      <polygon points="0,-20 14.4,0 0,20 -14.4,0" fill="#a06820" fill-opacity="0.85" stroke="#a06820" stroke-width="2" stroke-opacity="0.9"/>
    </g>
  </g>
</svg>
