<svg width="96" height="96" viewBox="0 0 96 96" xmlns="http://www.w3.org/2000/svg">
  <!-- Aayu Mandala Mark — Monochrome Light (brown on transparent) -->
  <g transform="translate(48,48)">
    <circle cx="0" cy="0" r="44" fill="none" stroke="#1e1004" stroke-width="1" stroke-opacity="0.15"/>
    <path d="M0,-36 C-10,-24 -10,-14 0,-11 C10,-14 10,-24 0,-36Z" fill="none" stroke="#1e1004" stroke-width="1.6" stroke-opacity="0.4" stroke-linejoin="round"/>
    <path d="M0,-36 C-10,-24 -10,-14 0,-11 C10,-14 10,-24 0,-36Z" fill="none" stroke="#1e1004" stroke-width="1.6" stroke-opacity="0.4" stroke-linejoin="round" transform="rotate(45)"/>
    <path d="M0,-36 C-10,-24 -10,-14 0,-11 C10,-14 10,-24 0,-36Z" fill="none" stroke="#1e1004" stroke-width="1.6" stroke-opacity="0.4" stroke-linejoin="round" transform="rotate(90)"/>
    <path d="M0,-36 C-10,-24 -10,-14 0,-11 C10,-14 10,-24 0,-36Z" fill="none" stroke="#1e1004" stroke-width="1.6" stroke-opacity="0.4" stroke-linejoin="round" transform="rotate(135)"/>
    <path d="M0,-36 C-10,-24 -10,-14 0,-11 C10,-14 10,-24 0,-36Z" fill="none" stroke="#1e1004" stroke-width="1.6" stroke-opacity="0.4" stroke-linejoin="round" transform="rotate(180)"/>
    <path d="M0,-36 C-10,-24 -10,-14 0,-11 C10,-14 10,-24 0,-36Z" fill="none" stroke="#1e1004" stroke-width="1.6" stroke-opacity="0.4" stroke-linejoin="round" transform="rotate(225)"/>
    <path d="M0,-36 C-10,-24 -10,-14 0,-11 C10,-14 10,-24 0,-36Z" fill="none" stroke="#1e1004" stroke-width="1.6" stroke-opacity="0.4" stroke-linejoin="round" transform="rotate(270)"/>
    <path d="M0,-36 C-10,-24 -10,-14 0,-11 C10,-14 10,-24 0,-36Z" fill="none" stroke="#1e1004" stroke-width="1.6" stroke-opacity="0.4" stroke-linejoin="round" transform="rotate(315)"/>
    <polygon points="0,-6 4.3,0 0,6 -4.3,0" fill="#1e1004" fill-opacity="0.6"/>
  </g>
</svg>
